<svg width="30" height="30" viewBox="0 0 30 30" fill="none" xmlns="http://www.w3.org/2000/svg">
<circle cx="15" cy="15" r="15" fill="white"/>
<path d="M8.969 10.902V8.828H11.349V10.902H8.969ZM9.105 21V12.687H11.23V21H9.105ZM13.608 21V12.687H15.682V13.979C15.9653 13.503 16.345 13.1403 16.821 12.891C17.3083 12.6417 17.8523 12.517 18.453 12.517C20.4137 12.517 21.394 13.656 21.394 15.934V21H19.269V16.036C19.269 15.39 19.1443 14.9197 18.895 14.625C18.657 14.3303 18.283 14.183 17.773 14.183C17.1497 14.183 16.651 14.3813 16.277 14.778C15.9143 15.1633 15.733 15.679 15.733 16.325V21H13.608Z" fill="#009AD9"/>
</svg>
