<svg width="30" height="30" viewBox="0 0 30 30" fill="none" xmlns="http://www.w3.org/2000/svg">
<circle cx="15" cy="15" r="15" fill="white"/>
<path d="M23.7165 9.99967C23.0749 10.2913 22.3832 10.483 21.6665 10.5747C22.3999 10.133 22.9665 9.43301 23.2332 8.59134C22.5415 9.00801 21.7749 9.29967 20.9665 9.46634C20.3082 8.74967 19.3832 8.33301 18.3332 8.33301C16.3749 8.33301 14.7749 9.93301 14.7749 11.908C14.7749 12.1913 14.8082 12.4663 14.8665 12.7247C11.8999 12.5747 9.2582 11.1497 7.49987 8.99134C7.19154 9.51634 7.01654 10.133 7.01654 10.783C7.01654 12.0247 7.64154 13.1247 8.6082 13.7497C8.01654 13.7497 7.46654 13.583 6.9832 13.333V13.358C6.9832 15.0913 8.21654 16.5413 9.84987 16.8663C9.32548 17.0098 8.77495 17.0298 8.24154 16.9247C8.46788 17.6351 8.91115 18.2567 9.50905 18.7021C10.107 19.1476 10.8294 19.3944 11.5749 19.408C10.3112 20.4084 8.74487 20.9491 7.1332 20.9413C6.84987 20.9413 6.56654 20.9247 6.2832 20.8913C7.86654 21.908 9.74987 22.4997 11.7665 22.4997C18.3332 22.4997 21.9415 17.0497 21.9415 12.3247C21.9415 12.1663 21.9415 12.0163 21.9332 11.858C22.6332 11.358 23.2332 10.7247 23.7165 9.99967Z" fill="#009AD9"/>
</svg>
